<?xml version="1.0" standalone="no"?>
<!DOCTYPE svg PUBLIC "-//W3C//DTD SVG 20010904//EN"
 "http://www.w3.org/TR/2001/REC-SVG-20010904/DTD/svg10.dtd">
<svg version="1.0" xmlns="http://www.w3.org/2000/svg"
 width="260.000000pt" height="260.000000pt" viewBox="0 0 260.000000 260.000000"
 preserveAspectRatio="xMidYMid meet">
<metadata>
Created by potrace 1.14, written by Peter Selinger 2001-2017
</metadata>
<g transform="translate(0.000000,260.000000) scale(0.100000,-0.100000)"
fill="#000000" stroke="none">
<path d="M560 2332 c0 -10 -17 -35 -37 -54 -21 -19 -47 -49 -58 -66 -34 -51
-78 -111 -117 -158 -21 -25 -38 -51 -38 -59 0 -7 -12 -23 -27 -35 -15 -11 -36
-36 -48 -55 -11 -19 -31 -42 -44 -51 -12 -9 -31 -37 -42 -61 -11 -25 -32 -58
-47 -73 -15 -15 -35 -39 -45 -53 -10 -15 -27 -27 -37 -27 -18 0 -20 -7 -20
-70 0 -58 3 -70 16 -70 9 0 142 -125 295 -278 154 -152 286 -284 294 -292 9
-8 154 -156 324 -327 383 -389 346 -377 553 -176 118 115 245 242 380 380 36
37 71 73 78 78 48 44 566 574 586 601 17 22 35 34 50 34 22 0 24 4 24 55 0 52
-1 55 -25 55 -15 0 -31 10 -42 26 -10 15 -30 38 -45 53 -15 14 -33 40 -40 57
-7 16 -23 43 -36 60 -12 16 -41 54 -65 84 -23 30 -52 71 -64 90 -12 19 -31 41
-42 47 -11 7 -32 35 -46 62 -13 27 -28 51 -32 53 -5 1 -25 26 -45 53 -20 28
-46 59 -57 69 -12 11 -21 30 -21 43 l0 23 -740 0 c-711 0 -740 -1 -740 -18z
m581 -89 c10 -10 6 -20 -15 -50 -57 -82 -127 -170 -192 -242 -39 -44 -69 -85
-125 -175 -28 -46 -53 -56 -67 -29 -6 10 -15 63 -22 118 -6 55 -23 158 -37
229 l-26 130 23 18 c22 18 41 19 236 16 150 -2 217 -7 225 -15z m752 8 c37
-14 40 -38 13 -85 -34 -59 -46 -130 -46 -277 0 -72 -5 -139 -10 -150 -14 -26
-37 -24 -51 4 -7 12 -29 41 -50 64 -22 24 -39 47 -39 52 0 12 -82 116 -220
277 -39 45 -70 87 -70 92 0 6 8 16 18 21 22 13 422 14 455 2z m-545 -108 c12
-16 36 -44 53 -64 17 -20 40 -51 50 -68 11 -18 35 -47 53 -66 19 -19 37 -43
40 -53 4 -10 18 -25 32 -33 14 -7 35 -31 45 -52 11 -21 26 -40 33 -43 7 -3 30
-27 51 -55 29 -39 35 -53 26 -62 -9 -9 -121 -13 -424 -15 -227 -1 -422 0 -434
3 -32 8 -29 31 10 69 48 50 80 87 107 126 13 19 55 73 92 119 37 46 68 88 68
95 0 6 17 27 38 47 20 20 45 48 56 63 16 24 23 27 50 22 17 -3 41 -18 54 -33z
m-793 -43 c14 -15 19 -39 21 -85 1 -36 9 -78 19 -97 39 -76 66 -237 46 -268
-8 -12 -48 -16 -218 -20 -114 -3 -216 -1 -225 3 -29 13 -22 54 11 71 16 9 42
36 57 61 16 25 32 45 36 45 4 0 17 19 29 43 12 23 36 59 53 79 55 65 97 122
117 156 22 37 29 39 54 12z m1488 -1 c38 -10 48 -22 123 -140 17 -27 48 -67
68 -89 20 -22 36 -44 36 -49 0 -4 29 -39 65 -77 66 -70 78 -97 49 -108 -9 -3
-103 -6 -209 -6 -167 0 -196 2 -210 17 -11 10 -15 26 -12 42 3 14 11 105 17
201 13 190 17 220 28 220 4 0 24 -5 45 -11z m-1393 -601 c39 -20 48 -30 65
-79 11 -30 32 -70 46 -87 18 -20 30 -52 38 -94 9 -53 16 -68 46 -93 30 -25 37
-38 42 -83 4 -40 14 -63 38 -92 18 -21 37 -59 44 -83 6 -25 22 -59 36 -75 41
-49 61 -131 35 -147 -16 -10 -48 4 -54 23 -3 9 -30 40 -58 69 -29 28 -82 81
-118 117 -36 36 -111 112 -166 168 -56 57 -128 129 -160 160 -117 113 -284
288 -284 297 0 17 24 19 215 20 179 1 194 0 235 -21z m1110 7 c17 -21 6 -70
-25 -107 -14 -16 -32 -54 -41 -85 -9 -31 -29 -75 -44 -99 -15 -24 -30 -62 -34
-85 -4 -26 -17 -52 -36 -71 -40 -40 -50 -60 -50 -102 0 -27 -9 -46 -35 -75
-19 -21 -38 -54 -41 -72 -8 -38 -29 -86 -50 -109 -7 -9 -23 -46 -34 -82 -21
-69 -63 -118 -100 -118 -26 0 -37 19 -42 79 -5 46 -11 58 -42 87 -22 20 -36
42 -36 57 0 38 -21 90 -47 118 -13 15 -31 53 -39 85 -9 33 -24 68 -35 79 -10
12 -28 48 -39 80 -11 32 -30 69 -41 81 -11 12 -29 54 -39 94 -15 57 -26 78
-51 99 -26 22 -32 35 -37 80 -4 45 -2 57 13 68 15 10 108 13 466 13 385 0 448
-2 459 -15z m595 1 c18 -13 18 -15 -9 -51 -21 -28 -292 -306 -434 -447 -8 -7
-26 -26 -42 -42 -51 -52 -57 -58 -107 -105 -41 -39 -128 -134 -164 -178 -5 -7
-21 -13 -34 -13 -20 0 -25 5 -25 23 0 43 27 114 58 153 17 22 38 64 47 95 8
31 24 64 35 74 11 10 27 43 35 74 9 31 27 72 40 91 13 19 31 60 40 91 8 31 25
65 36 75 30 27 49 68 49 105 0 18 7 41 17 51 15 16 35 18 228 18 164 0 215 -3
230 -14z m-837 -883 c-3 -30 -25 -42 -34 -19 -6 17 11 46 28 46 5 0 8 -12 6
-27z"/>
</g>
</svg>
