<?xml version="1.0" encoding="UTF-8"?><svg id="_レイヤー_2" xmlns="http://www.w3.org/2000/svg" viewBox="0 0 10 14.71"><defs><style>.cls-1{fill:#19214a;}</style></defs><g id="_レイヤー_1-2"><path id="_パス_29" class="cls-1" d="m1.64,9.32c2.73,5.2,5.79,5.73,6.68,5.26l.23-.12-2.08-3.98-.23.12c-.72.38-1.43-.71-2.35-2.46s-1.41-2.96-.69-3.34l.23-.12L1.34.71l-.23.12c-.89.47-2.19,3.29.54,8.49Zm8.17,4.48c.34-.18.15-.58-.04-.95l-1.4-2.67c-.15-.29-.4-.45-.6-.34-.13.07-.42.21-.8.39l2.08,3.97.76-.4ZM4.7,3.98c.2-.1.21-.4.06-.69S3.35.62,3.35.62c-.2-.37-.41-.75-.76-.57l-.76.4,2.08,3.97c.37-.21.65-.37.78-.43Z"/></g></svg>